<?xml version="1.0" encoding="UTF-8" standalone="no"?>
<svg
   sodipodi:docname="linux-assistant.svg"
   inkscape:version="1.1.2 (0a00cf5339, 2022-02-04)"
   id="svg3337"
   version="1.1"
   viewBox="0 0 541.86664 541.86664"
   height="541.86664mm"
   width="541.86664mm"
   xmlns:inkscape="http://www.inkscape.org/namespaces/inkscape"
   xmlns:sodipodi="http://sodipodi.sourceforge.net/DTD/sodipodi-0.dtd"
   xmlns:xlink="http://www.w3.org/1999/xlink"
   xmlns="http://www.w3.org/2000/svg"
   xmlns:svg="http://www.w3.org/2000/svg"
   xmlns:rdf="http://www.w3.org/1999/02/22-rdf-syntax-ns#"
   xmlns:cc="http://creativecommons.org/ns#"
   xmlns:dc="http://purl.org/dc/elements/1.1/">
  <defs
     id="defs3331">
    <linearGradient
       inkscape:collect="always"
       id="linearGradient1662">
      <stop
         style="stop-color:#89b159;stop-opacity:1"
         offset="0"
         id="stop1658" />
      <stop
         style="stop-color:#2eb9a1;stop-opacity:1"
         offset="1"
         id="stop1660" />
    </linearGradient>
    <inkscape:path-effect
       draw_ori_path="false"
       rot_axes="0"
       draw_perspective_axes="false"
       gen_perspective_frame="false"
       draw_axes="false"
       gen_isometric_frame="false"
       slice_arc="false"
       arc_other="false"
       gen_arc="false"
       method="circle"
       lpeversion="1"
       is_visible="true"
       id="path-effect3447"
       effect="pts2ellipse" />
    <linearGradient
       inkscape:collect="always"
       xlink:href="#linearGradient1662"
       id="linearGradient1952"
       gradientUnits="userSpaceOnUse"
       x1="-167.7513"
       y1="-182.94562"
       x2="299.03979"
       y2="283.84549" />
  </defs>
  <sodipodi:namedview
     inkscape:snap-bbox-midpoints="true"
     inkscape:snap-bbox-edge-midpoints="true"
     inkscape:bbox-nodes="true"
     inkscape:bbox-paths="true"
     inkscape:snap-bbox="true"
     inkscape:window-maximized="1"
     inkscape:window-y="0"
     inkscape:window-x="0"
     inkscape:window-height="1012"
     inkscape:window-width="1920"
     inkscape:snap-intersection-paths="true"
     inkscape:object-paths="true"
     inkscape:snap-midpoints="true"
     inkscape:snap-smooth-nodes="true"
     inkscape:snap-nodes="true"
     inkscape:snap-global="true"
     showgrid="false"
     inkscape:document-rotation="0"
     inkscape:current-layer="layer1"
     inkscape:document-units="mm"
     inkscape:cy="1179.8582"
     inkscape:cx="941.46217"
     inkscape:zoom="0.12374369"
     inkscape:pageshadow="2"
     inkscape:pageopacity="0.0"
     borderopacity="1.0"
     bordercolor="#666666"
     pagecolor="#ffffff"
     id="base"
     inkscape:pagecheckerboard="0" />
  <metadata
     id="metadata3334">
    <rdf:RDF>
      <cc:Work
         rdf:about="">
        <dc:format>image/svg+xml</dc:format>
        <dc:type
           rdf:resource="http://purl.org/dc/dcmitype/StillImage" />
      </cc:Work>
    </rdf:RDF>
  </metadata>
  <g
     transform="translate(205.28908,220.4834)"
     id="layer1"
     inkscape:groupmode="layer"
     inkscape:label="Layer 1">
    <g
       id="g4276"
       transform="matrix(1.1209597,0,0,1.1209597,-7.9403076,-6.102408)">
      <path
         style="opacity:1;fill:url(#linearGradient1952);fill-opacity:1;stroke:#ffffff;stroke-width:11.3;stroke-miterlimit:4;stroke-dasharray:none;paint-order:markers fill stroke;stop-color:#000000"
         d="m 293.38979,50.44993 c 0,125.78039 -101.96515,227.74555 -227.745545,227.74555 -125.780393,0 -227.745545,-101.96516 -227.745545,-227.74555 0,-125.780393 101.965152,-227.74555 227.745545,-227.74555 125.780395,0 227.745545,101.965157 227.745545,227.74555 z"
         id="path3445"
         sodipodi:nodetypes="cccc" />
      <path
         style="fill:#ffffff;stroke-width:1.41738"
         d="m 138.40729,205.58434 c 6.54687,-1.71055 7.84785,-2.24398 12.79404,-5.24613 3.0311,-1.83975 4.97056,-3.57577 11.42813,-10.22925 5.06721,-5.22097 8.58624,-7.57795 19.23222,-12.88133 8.33453,-4.152 10.44674,-5.45295 12.53981,-7.72364 3.87874,-4.20798 2.84337,-9.84217 -3.13322,-17.04974 -3.9929,-4.81527 -4.21615,-5.14878 -5.00177,-7.47196 -0.40636,-1.20162 -1.34859,-4.71611 -2.09386,-7.80999 -1.40676,-5.84012 -2.60321,-8.56791 -4.53836,-10.34698 -2.95276,-2.71467 -6.5399,-3.83793 -11.67753,-3.65666 -3.94381,0.13919 -3.28574,-0.13394 -9.44263,3.91838 -3.98521,2.62298 -9.18498,4.30578 -14.03296,4.54145 -3.40766,0.16563 -3.51356,0.14243 -7.70984,-1.69066 -1.72379,-0.75302 -4.95578,-3.86378 -6.80248,-6.54735 -0.81614,-1.18599 -1.6948,-2.15634 -1.95258,-2.15634 -0.50486,0 -3.25993,4.52483 -3.24373,5.32736 0.006,0.26697 -0.32994,1.91982 -0.74521,3.67301 -0.8341,3.52166 -1.69701,10.61815 -2.23441,18.37576 -0.47308,6.82951 -0.92568,9.13062 -3.42978,17.43821 -0.43521,1.44382 -0.98813,3.4689 -1.2287,4.50019 -0.24053,1.03129 -0.56429,2.07152 -0.71942,2.31159 -0.35177,0.54445 -1.2811,5.02822 -1.81388,8.75137 -0.47061,3.28876 -0.29278,9.08714 0.30091,9.81077 0.22658,0.27621 0.60129,1.21029 0.83268,2.07583 0.91564,3.42497 5.98757,8.82371 9.96555,10.60766 3.9053,1.75135 9.27244,2.37582 12.70702,1.47845 z M 4.3827908,201.9044 c 8.1507632,-1.77762 12.7549842,-5.96655 14.6791222,-13.35499 0.816964,-3.137 0.859117,-5.83251 0.12317,-7.87532 -0.297225,-0.82503 -0.542956,-1.75797 -0.54606,-2.07316 -0.0099,-1.01089 -2.582001,-5.98858 -4.81578,-9.32008 -2.02796,-3.02453 -4.4654024,-6.1951 -9.2657182,-12.05269 -1.102056,-1.34481 -2.408343,-3.03237 -2.902839,-3.75016 -3.551249,-5.1548 -4.371062,-6.49736 -5.491346,-8.9929 -2.134604,-4.75498 -6.4297798,-12.82209 -8.0526538,-15.1243 -4.315968,-6.12266 -5.591271,-7.62565 -7.923472,-9.3382 -3.524418,-2.588 -5.723258,-3.39047 -9.368309,-3.41898 -5.133911,-0.0401 -8.389678,2.26973 -13.875568,9.84437 -1.237558,1.70875 -2.948862,3.75247 -3.802905,4.54161 -1.416729,1.30911 -7.435157,4.49273 -8.501028,4.49686 -1.788579,0.007 -7.020331,2.99516 -8.807352,5.03048 -2.003128,2.28142 -3.349867,6.70735 -2.929032,9.62598 0.131249,0.91024 0.393267,3.08942 0.58226,4.84261 0.189008,1.7532 0.545621,4.29857 0.792486,5.65635 0.546628,3.00669 0.450146,3.73666 -1.309348,9.90679 -1.732352,6.07495 -1.887215,9.18413 -0.603181,12.11056 1.425191,3.24816 5.107349,5.68351 9.521159,6.29718 0.856014,0.11906 1.978268,0.36909 2.493925,0.5557 0.515644,0.18661 2.625104,0.51637 4.687691,0.73279 14.405385,1.51154 18.489144,2.45038 26.438583,6.07824 1.753202,0.8001 3.778285,1.72353 4.500186,2.05213 0.721915,0.32859 1.619953,0.75033 1.995659,0.9372 0.884516,0.43992 6.380794,1.99965 8.3172638,2.36023 5.691069,1.05969 9.94521106,1.12978 14.063087,0.2317 z m 37.3140342,-2.46012 c 1.650059,-0.33522 4.181417,-0.86328 5.625232,-1.17346 2.525745,-0.54265 4.705181,-0.85185 12.000485,-1.70256 3.885536,-0.45309 16.323596,-0.18789 18.000746,0.38383 0.61877,0.2109 2.64385,0.55258 4.50018,0.75925 1.85633,0.20666 4.7252,0.55385 6.37527,0.77152 1.65006,0.21765 5.86899,0.34989 9.375377,0.29387 l 6.375265,-0.10191 -0.13224,-4.76649 c -0.0727,-2.62154 0.0482,-5.57478 0.26859,-6.56277 0.22043,-0.98794 0.88992,-4.15888 1.48766,-7.0465 0.59776,-2.88761 1.53163,-6.7294 2.07525,-8.53727 1.51788,-5.04775 1.40099,-5.23307 -1.88847,-2.99446 -9.873542,6.71941 -21.010422,11.69272 -30.036992,13.41336 -1.49883,0.28573 -2.87649,0.61301 -3.06145,0.72732 -0.82409,0.50933 -11.42181,0.90824 -16.013118,0.60275 -6.204898,-0.41285 -10.390113,-1.33141 -17.014372,-3.73421 -4.426326,-1.60556 -11.233441,-5.43721 -14.20963,-7.99837 -2.495215,-2.14729 -3.173332,-1.71484 -1.221655,0.7791 0.588171,0.75157 1.305394,1.82726 1.593817,2.39035 2.314867,4.51942 3.778866,7.73686 4.264517,9.37219 1.000076,3.36768 0.629105,10.76692 -0.764847,15.25503 l -0.279536,0.90004 4.839889,-0.21057 c 2.661942,-0.1158 6.189959,-0.48483 7.840032,-0.82005 z m -21.818118,-39.9454 c 5.194972,-0.8508 8.042406,-3.10531 9.015863,-7.13846 0.587221,-2.43295 0.587334,-2.76878 0.0014,-5.14532 -0.62471,-2.5347 -2.86362,-7.44943 -4.39116,-9.63917 C 19.640173,130.60213 9.1101646,121.36041 -0.86754718,115.30758 -11.916176,108.6051 -18.239071,100.40307 -20.582952,89.732957 c -1.353358,-6.160988 -0.16837,-20.053833 2.271084,-26.62623 0.344495,-0.928172 0.936634,-2.615735 1.315841,-3.750164 2.098007,-6.276164 11.0072268,-24.109584 13.7327798,-27.488664 0.435561,-0.539994 1.004498,-1.494983 1.264304,-2.122202 0.259792,-0.62722 0.7050201,-1.140397 0.989389,-1.140397 0.64378909,0 0.63956509,0.179412 -0.05074,2.161096 -0.577541,1.657911 -0.841585,2.255578 -1.696138,3.839147 -0.27826,0.515657 -1.459988,2.829731 -2.626053,5.142387 -1.166065,2.31267 -2.287257,4.42213 -2.491544,4.68769 -0.204273,0.265575 -1.233972,2.507943 -2.2881918,4.983045 -7.287055,17.108359 -7.996029,32.43789 -2.051107,44.349874 1.750509,3.507565 2.7641628,4.838642 3.3901218,4.451782 0.188072,-0.116226 0.438481,-2.453175 0.556478,-5.1932 0.118067,-2.740025 0.384422,-5.741273 0.592068,-6.669445 0.897089,-7.273926 3.250741,-14.480645 5.277449,-21.000856 1.1740601,-3.804549 3.797845,-10.105475 6.25214,-15.014348 0.261577,-0.523198 0.806178,-1.78994 1.210216,-2.815004 0.404039,-1.025051 1.663056,-3.803359 2.7978117,-6.174028 2.7087285,-5.658725 7.7702815,-17.081698 7.7702815,-17.535855 0,-0.196279 0.589503,-1.632809 1.310029,-3.192269 1.958807,-4.239571 7.28748,-20.08690239 7.307451,-21.7321135 0.0043,-0.3566273 0.325657,-1.7066829 0.714062,-3.0001283 1.169425,-3.8944244 1.918454,-7.4455582 2.318383,-10.9914632 0.208482,-1.848407 0.473206,-4.067884 0.588298,-4.932161 0.194238,-1.458769 0.09071,-1.700716 -1.443376,-3.375139 -6.551051,-7.150022 -6.414387,-12.978422 0.417178,-17.791508 3.215442,-2.265401 3.483044,-2.907758 1.942379,-4.662476 -0.634647,-0.722836 -1.153919,-1.464183 -1.153919,-1.647436 0,-0.183253 -0.393266,-0.810218 -0.873928,-1.393258 -0.480663,-0.583039 -1.166959,-1.903854 -1.525088,-2.935141 -4.284857,-12.338942 -0.723134,-25.713861 7.622293,-28.623093 4.938837,-1.721687 9.816102,1.290908 13.250757,8.184753 1.827586,3.668211 2.274557,5.600031 2.852069,12.326752 l 0.237284,2.763879 6.110501,0.04876 6.110507,0.04876 0.22633,-0.902234 c 0.12444,-0.496225 0.052,-1.846281 -0.16103,-3.000128 -0.38027,-2.059498 -0.25985,-3.421785 0.71597,-8.098137 1.33596,-6.402396 7.63164,-13.680445 12.81533,-14.815059 0.85721,-0.187618 2.00536,-0.449069 2.5515,-0.580998 0.56469,-0.136352 2.29926,0.09043 4.02181,0.526089 4.96175,1.254723 9.4364,4.83308 11.6512,9.317462 0.63101,1.277542 1.1483,2.458845 1.14957,2.625103 0,0.166259 0.25295,0.782891 0.5593,1.370282 0.56488,1.083064 1.49714,6.997852 1.42761,9.057435 -0.0925,2.739812 -0.90611,7.64276 -1.52463,9.187876 -0.9627,2.404998 -3.00412,6.278106 -3.45633,6.557585 -0.85672,0.529477 -0.30514,1.717852 1.39791,3.011808 4.21198,3.200177 5.860491,7.248431 4.619957,11.345471 -0.358657,1.184576 -0.833427,2.492635 -1.055097,2.906779 -0.3835,0.7166 0.38394,3.830898 3.093828,12.554852 0.288307,0.928158 0.857584,2.784488 1.265084,4.125174 0.70321,2.3137757 1.49923,4.5913642 3.53883,10.1254154 3.63088,10.0346907 7.60112,19.7694236 11.86031,29.1456276 1.05113,2.313903 4.189,8.723598 6.97307,14.24376 2.78408,5.520161 5.21343,10.545997 5.39854,11.168525 0.18511,0.622528 0.96552,2.56631 1.73426,4.319512 0.76875,1.753187 2.0558,5.128326 2.86012,7.500299 0.80438,2.371974 1.63672,4.818955 1.8497,5.437727 0.21296,0.618772 0.81063,2.897 1.32816,5.062716 0.51747,2.165716 1.18005,4.728766 1.47237,5.695689 0.29234,0.966924 0.53148,2.018436 0.53148,2.336709 0,0.63313 0.43569,0.771623 4.25804,1.353557 3.60899,0.549448 3.52762,0.653569 5.12394,-6.555785 2.17408,-9.818767 -0.27488,-23.188471 -6.46039,-35.26901 -2.45425,-4.793243 -9.00366,-13.983614 -11.28002,-15.828449 -1.01704,-0.82425 -2.89204,-3.296148 -2.89204,-3.812713 0,-0.737464 0.69907,-0.791636 1.8395,-0.142518 0.63576,0.361843 1.15695,0.868841 1.15827,1.126662 0,0.257822 0.1355,0.468771 0.29824,0.468771 0.77592,0 9.54411,10.733786 10.80983,13.233111 0.33559,0.662739 0.85499,1.48465 1.15414,1.826451 1.54608,1.766497 6.59807,12.263169 8.00359,16.629242 2.80672,8.718779 3.06343,10.076999 3.26041,17.250706 0.17964,6.540208 0.0435,8.308193 -1.13393,14.724791 -0.64465,3.513235 -0.89434,3.758512 -3.17255,3.116396 -2.93022,-0.825865 -4.98707,-1.107088 -8.26961,-1.130645 -4.61649,-0.03317 -6.27349,0.504687 -8.54092,2.772086 -1.70613,1.706159 -1.977,2.206905 -2.54961,4.713714 -0.35236,1.542621 -0.8019,3.415 -0.99897,4.16084 -1.11776,4.23027 0.37049,12.06903 3.31642,17.46792 1.71996,3.15218 4.22744,5.73489 6.87043,7.07663 7.35964,3.73616 19.98697,-0.75273 29.28773,-10.41153 l 2.14386,-2.22637 3.66888,0.18786 c 2.01788,0.10333 4.25874,0.24123 4.97972,0.30644 l 1.31078,0.11864 1.01885,-2.90687 c 0.89647,-2.55785 1.65025,-6.00522 2.93614,-13.428895 0.46979,-2.712089 0.46597,-13.399781 -0.006,-16.080517 -0.20175,-1.146845 -0.539,-3.182077 -0.74938,-4.522764 -0.95187,-6.065612 -3.456,-15.345363 -4.87626,-18.070165 -0.41675,-0.799559 -0.75772,-1.691857 -0.75772,-1.982902 0,-0.291031 -0.68692,-2.015602 -1.52649,-3.832358 -0.83956,-1.816757 -1.97855,-4.315728 -2.53113,-5.553286 -2.34879,-5.261366 -8.10452,-15.110096 -12.71118,-21.750896 -2.56766,-3.701477 -8.15331,-11.145081 -10.69356,-14.250593 -16.01957,-19.5840845 -22.33814,-29.635542 -25.22444,-40.126643 -0.34048,-1.237558 -0.80032,-2.756367 -1.02192,-3.375139 -0.25452,-0.710675 -0.5021,-8.583789 -0.67222,-21.375881 -0.16144,-12.139587 -0.45136,-21.602719 -0.72385,-23.625974 -1.13731,-8.445546 -1.65648,-11.541914 -2.78588,-16.615501 -0.58749,-2.63911 -1.00624,-4.086714 -2.55579,-8.834996 -0.68082,-2.0862 -3.76835,-8.36363 -5.76858,-11.72832 -2.04735,-3.444 -7.97253,-9.28925 -12.047477,-11.885 -5.430395,-3.45916 -7.492125,-4.22807 -18.177635,-6.77929 -2.76667,-0.66056 -16.86496,-0.81728 -20.37679,-0.22651 -1.0313,0.17349 -3.027699,0.49991 -4.436435,0.72537 -19.224027,3.07684 -32.024822,14.33945 -37.37674,32.885414 -1.420046,4.920857 -1.880667,7.273753 -2.634742,13.458468 -0.446418,3.661478 -0.386987,23.775204 0.08703,29.438705 0.828105,9.89471 0.46269,22.919239 -0.794371,28.313665 -0.192253,0.825029 -0.550511,2.512605 -0.796143,3.750149 -1.205355,6.073096 -4.822923,14.9118284 -8.8456492,21.61244 -0.697252,1.1614164 -1.267734,2.21777644 -1.267734,2.34748094 0,0.38667577 -4.16250797,5.90943106 -5.82526698,7.72888086 -0.84823102,0.9281721 -1.92340002,2.320409 -2.38925102,3.0938882 -0.465865,0.773465 -0.959822,1.40746 -1.097705,1.408864 -0.137911,0.0014 -0.671059,0.63425 -1.18486,1.406312 -0.5138,0.772062 -1.023732,1.488123 -1.133168,1.591252 -2.045026,1.927071 -17.6210538,24.93956 -17.6210538,26.033722 0,0.07739 -0.700937,1.294466 -1.557645,2.704618 -3.783745,6.228186 -10.750542,21.420954 -11.928939,26.013907 -0.238134,0.928172 -0.662909,2.193851 -0.943947,2.812623 -0.459969,1.012747 -2.049363,7.086127 -3.140506,12.000499 -1.250315,5.631214 -1.699427,16.034842 -0.942799,21.840012 0.475021,3.6446 0.819955,3.92254 2.840531,2.28894 2.72989,-2.20707 5.569273,-3.13342 9.48554,-3.09467 11.177157,0.11056 19.829419,9.51092 31.29219183,33.99757 2.24798097,4.80211 4.62956497,8.71495 7.91518207,13.00426 5.5570691,7.25468 6.1011021,7.59129 10.9774751,6.79265 z M 59.10676,-11.915036 c 3.479358,-0.43627 6.611668,-1.610287 9.759318,-3.657892 3.10627,-2.020662 6.08382,-3.823741 6.31441,-3.823741 0.91425,0 6.57369,-2.685285 8.59602,-4.078642 4.49284,-3.095504 6.87261,-7.576767 6.05301,-11.398311 -0.823,-3.83763 -3.74801,-5.967742 -12.50623,-9.10751 -2.06259,-0.739434 -5.20461,-2.176318 -6.98231,-3.193091 -1.77763,-1.016773 -3.45193,-1.848676 -3.72059,-1.848676 -0.2687,0 -0.75494,-0.231444 -1.08057,-0.514339 -1.46886,-1.276055 -4.63369,-1.923259 -9.40491,-1.923259 h -4.68769 l -3.356232,1.687576 c -2.146992,1.079549 -4.321099,2.565829 -6.034231,4.125161 -1.4729,1.340687 -4.621655,3.90429 -6.997229,5.696895 -3.079813,2.324023 -4.5182,3.669174 -5.012597,4.68769 -1.986148,4.091725 0.826844,9.383688 7.149711,13.450467 1.237544,0.795973 3.515757,2.554106 5.062701,3.906954 5.087903,4.449571 6.822168,5.458548 10.312923,5.999988 2.732314,0.423811 3.084633,0.423315 6.534496,-0.0099 z m 24.313648,-36.826598 c 1.93647,-2.067903 3.82534,-9.002724 3.16268,-11.611357 -0.22464,-0.884361 -0.51557,-2.27511 -0.64649,-3.090558 -0.74088,-4.613802 -4.48196,-7.822683 -8.28773,-7.108719 -4.63425,0.869393 -7.9738,9.579031 -6.31384,16.466667 0.27992,1.161516 1.54312,2.812609 2.15182,2.812609 0.19005,0 0.82443,0.341036 1.40979,0.757831 1.38005,0.982685 5.52758,2.575453 6.76772,2.598981 0.53635,0.0099 1.31731,-0.35691 1.75605,-0.825454 z m -44.028953,-2.437598 c 1.108392,-0.979722 2.577068,-2.213624 3.263718,-2.741995 1.120993,-0.862576 1.247154,-1.149751 1.235673,-2.812609 -0.02636,-3.816186 -1.6194,-8.264948 -3.742311,-10.450848 -1.431314,-1.473779 -1.570728,-1.510092 -3.615938,-0.942133 -1.857904,0.515941 -3.005104,2.312996 -3.863682,6.052303 -0.963735,4.197305 0.01587,8.840688 2.575622,12.207834 0.703064,0.924841 2.124796,0.474836 4.146918,-1.312552 z"
         id="path3399"
         sodipodi:nodetypes="ssssssssssssssscssssssssssssssssssssssssssssssssssssssssssssscsssssssssssssscssssssssssssssssssssssccsssssssssssssssssscccssssssscsssssssssccsssssssssssssscsssssssssssssscsscssssssssssssssssssssssssssssssssssssssssssssscssssssssscsssssssccssssssscsssssssss" />
    </g>
  </g>
</svg>
